<svg width="308" height="174" viewBox="0 0 308 174" fill="none" xmlns="http://www.w3.org/2000/svg">
<path fill-rule="evenodd" clip-rule="evenodd" d="M0 0.735352H307.2V173.535H0V0.735352Z" fill="#1E2129"/>
<mask id="mask0_22_39" style="mask-type:luminance" maskUnits="userSpaceOnUse" x="0" y="0" width="308" height="174">
<path d="M0 0.735352H307.2V173.535H0V0.735352Z" fill="white"/>
</mask>
<g mask="url(#mask0_22_39)">
<path fill-rule="evenodd" clip-rule="evenodd" d="M-65.8527 19.4765L-45.7799 32.7495C-25.707 46.023 14.4379 72.5687 53.8591 76.2224C93.2795 79.8758 131.976 60.6364 170.983 51.2081C209.99 41.7802 249.308 42.1631 288.728 45.8164C328.149 49.4698 367.673 56.3932 387.435 59.8556L407.197 63.3171L410.924 181.052L391.264 180.86C371.605 180.669 332.288 180.286 292.971 179.903C253.654 179.52 214.336 179.137 175.019 178.754C135.701 178.371 96.384 177.988 57.0668 177.605C17.7492 177.222 -21.5687 176.839 -41.2265 176.648L-60.8855 176.456L-65.8531 19.4761L-65.8527 19.4765Z" fill="#4051B5" fill-opacity="0.141176"/>
<path fill-rule="evenodd" clip-rule="evenodd" d="M371.114 20.35L353.669 35.6724C336.224 50.9947 301.334 81.6391 263.266 92.3317C225.197 103.024 183.95 93.7648 144.064 93.0562C104.18 92.3476 65.6571 100.19 27.588 110.882C-10.48 121.574 -48.0948 135.117 -66.9021 141.889L-85.7099 148.66L-69.3623 251.27L-50.1009 247.349C-30.8396 243.429 7.68274 235.586 46.2058 227.743C84.7278 219.901 123.251 212.059 161.773 204.217C200.296 196.375 238.819 188.532 277.342 180.69C315.865 172.849 354.388 165.006 373.648 161.085L392.91 157.163L371.114 20.3496V20.35Z" fill="#4051B5" fill-opacity="0.141176"/>
<path fill-rule="evenodd" clip-rule="evenodd" d="M-68.8656 107.732L-48.8328 119.47C-28.7994 131.208 11.2665 154.684 50.6718 157.967C90.0767 161.25 128.822 144.34 167.849 136.085C206.876 127.829 246.187 128.227 285.592 131.51C324.998 134.793 364.497 140.961 384.247 144.045L403.996 147.129L407.395 250.977L387.739 250.778C368.084 250.579 328.773 250.181 289.462 249.783C250.152 249.384 210.841 248.986 171.53 248.587C132.219 248.189 92.908 247.79 53.5977 247.392C14.2869 246.994 -25.0242 246.596 -44.6794 246.396L-64.3349 246.197L-68.8663 107.732L-68.8656 107.732Z" fill="#4051B5" fill-opacity="0.141176"/>
</g>
<path d="M112.094 94.1655H118.021V115.909H112.094V94.1655ZM124.152 102.836V107.069H114.634V102.836H124.152ZM130.012 94.1655V98.35H114.194V94.1655H130.012ZM125.438 111.676V115.909H114.194V111.676H125.438ZM137.123 98.8392V103.852H135.193C133.77 103.852 133.059 104.619 133.059 106.155V107.069H132.856V102.633C132.856 101.865 133.003 101.199 133.296 100.634C133.589 100.069 134.018 99.6295 134.583 99.3132C135.148 98.9973 135.825 98.8388 136.615 98.8388H137.124L137.123 98.8392ZM133.059 115.909H127.301V99.0087H132.957V102.903L133.059 102.226V115.909ZM138.308 107.137H144.066V109.914C144.066 110.162 144.134 110.349 144.269 110.473C144.405 110.597 144.619 110.66 144.913 110.66H145.488C145.805 110.66 146.036 110.58 146.183 110.423C146.33 110.265 146.403 110.005 146.403 109.644V108.729H146.606V111.777C146.606 112.726 146.341 113.482 145.81 114.047C145.279 114.611 144.483 114.893 143.422 114.893H142.813C141.21 114.893 140.058 114.509 139.358 113.742C138.658 112.974 138.308 111.958 138.308 110.694V107.137V107.137ZM144.066 107.781H138.308V103.208C138.308 101.944 138.658 100.927 139.358 100.16C140.058 99.3923 141.21 99.0087 142.813 99.0087H143.422C144.483 99.0087 145.279 99.2905 145.81 99.8553C146.341 100.42 146.606 101.176 146.606 102.124V105.173H146.403V104.258C146.403 103.896 146.329 103.637 146.183 103.479C146.036 103.321 145.805 103.242 145.488 103.242H144.913C144.619 103.242 144.405 103.304 144.269 103.428C144.134 103.553 144.066 103.739 144.066 103.987V107.781ZM146.403 115.469V114.52H152.161V116.078C152.161 117.343 151.783 118.359 151.027 119.126C150.27 119.894 148.989 120.278 147.182 120.278H139.088V116.214H145.557C145.85 116.214 146.065 116.151 146.2 116.027C146.336 115.903 146.403 115.716 146.403 115.468V115.469ZM152.161 114.893H146.403V102.226H146.505V99.0087H152.161V114.893ZM160.289 107.781H154.532V103.208C154.532 101.944 154.882 100.927 155.581 100.16C156.281 99.3923 157.433 99.0087 159.036 99.0087H159.646C160.707 99.0087 161.502 99.2905 162.033 99.8553C162.564 100.42 162.829 101.176 162.829 102.124V105.173H162.626V104.258C162.626 103.896 162.553 103.637 162.406 103.479C162.259 103.321 162.028 103.242 161.712 103.242H161.136C160.843 103.242 160.628 103.304 160.493 103.428C160.357 103.553 160.289 103.739 160.289 103.987V107.781ZM168.384 115.909H162.626V102.226H162.728V99.0087H168.384V115.909ZM154.532 107.137H160.29V110.93C160.29 111.179 160.358 111.365 160.493 111.489C160.628 111.614 160.843 111.676 161.136 111.676H161.712C162.028 111.676 162.26 111.597 162.407 111.439C162.553 111.28 162.626 111.021 162.626 110.66V109.745H162.829V112.793C162.829 113.742 162.564 114.498 162.033 115.062C161.503 115.627 160.707 115.909 159.646 115.909H159.037C157.433 115.909 156.282 115.525 155.582 114.757C154.882 113.99 154.532 112.974 154.532 111.71V107.137ZM177.529 95.6897V110.93C177.529 111.179 177.596 111.365 177.732 111.49C177.867 111.614 178.082 111.676 178.375 111.676H179.628V115.909H176.749C174.943 115.909 173.662 115.526 172.905 114.758C172.149 113.99 171.771 112.974 171.771 111.71V95.6901H177.529V95.6897ZM179.663 99.009V103.242H169.908V99.009H179.663ZM186.47 103.716V111.201C186.47 111.449 186.538 111.636 186.673 111.76C186.809 111.885 187.023 111.947 187.317 111.947H188.299V115.909H185.996C184.19 115.909 182.908 115.526 182.152 114.758C181.396 113.99 181.018 112.974 181.018 111.71V103.209C181.018 101.944 181.396 100.928 182.152 100.161C182.908 99.393 184.19 99.0094 185.996 99.0094H188.265V102.972H187.317C187.023 102.972 186.808 103.034 186.673 103.158C186.538 103.282 186.47 103.469 186.47 103.717V103.716ZM189.654 108.221V103.716C189.654 103.468 189.586 103.282 189.451 103.158C189.315 103.033 189.101 102.971 188.808 102.971H188.097V99.0087H190.128C191.935 99.0087 193.216 99.3923 193.972 100.16C194.729 100.927 195.107 101.944 195.107 103.208V108.22H189.654L189.654 108.221ZM189.654 111.134V110.186H195.107V111.71C195.107 112.974 194.729 113.99 193.972 114.757C193.216 115.525 191.934 115.909 190.128 115.909H188.096V111.947H188.807C189.101 111.947 189.315 111.873 189.45 111.726C189.586 111.58 189.654 111.382 189.654 111.134L189.654 111.134ZM195.107 105.85V108.966H182.406V105.85H195.107Z" fill="white"/>
<path d="M170.879 49.6711L163.812 67.3383C164.627 68.6775 165.096 70.2486 165.096 71.9272C165.096 76.8108 161.124 80.7835 156.24 80.7835C156.24 75.38 156.24 68.2961 156.24 63.0709C157.815 63.0709 159.293 63.4859 160.576 64.2093L168.058 45.5044L175.924 49.6711H170.879Z" fill="white"/>
<path d="M140.635 55.3151L137.527 50.1349H125.403V47.2393H139.166L143.118 53.8253L140.635 55.3151Z" fill="white"/>
<path d="M165.553 94.1831L176.571 66.3779L183.348 75.5161L180.174 78.232L177.685 74.8763L168.384 98.3502H160.196V94.1831H165.553Z" fill="white"/>
<path d="M175.606 66.1401C166.842 66.1401 159.977 70.7737 159.977 76.6897C159.977 82.605 166.842 87.2393 175.606 87.2393C184.37 87.2393 191.235 82.6058 191.235 76.6897C191.235 70.7741 184.37 66.1401 175.606 66.1401Z" fill="white"/>
<path d="M163.812 76.5168C164.627 75.1776 165.097 73.6061 165.097 71.9276C165.097 67.0443 161.124 63.0713 156.24 63.0713C151.357 63.0713 147.384 67.0443 147.384 71.9276C147.384 73.325 147.711 74.6472 148.289 75.8238L146.681 79.8456L139.908 76.4597L132.819 94.184H127.456V98.3511H135.639L142.095 82.212L148.868 85.5982L151.377 79.3247C152.774 80.2463 154.445 80.7842 156.24 80.7842C157.815 80.7842 159.293 80.3696 160.576 79.6462C163.812 76.5176 160.576 79.6462 163.812 76.5176V76.5168Z" fill="white"/>
<path d="M144.295 51.6228L139.822 44.1682H122.377V40.0015H142.181L147.868 49.4789L144.295 51.6228Z" fill="white"/>
<path d="M155.536 51.3383C153.721 49.1524 150.849 48.0439 146.998 48.0439C143.7 48.0439 139.713 49.626 135.149 52.746C131.879 54.981 129.515 57.1938 129.416 57.2869L127.8 58.805L129.416 60.3228C129.515 60.4163 131.879 62.6286 135.149 64.8637C139.713 67.9836 143.7 69.5657 146.998 69.5657C150.848 69.5657 153.72 68.4576 155.536 66.2718C157.032 64.4702 157.759 62.0279 157.759 58.8046C157.759 55.5818 157.032 53.1394 155.536 51.3383ZM143.118 60.2869H147.285V56.1198H143.118V60.2869Z" fill="white"/>
<path d="M143.118 60.2863H147.284V56.1196H143.118V60.2863Z" fill="white"/>
<path d="M188.133 94.1831L177.116 66.3779L170.339 75.5161L173.512 78.232L176.001 74.8763L185.302 98.3502H193.49V94.1831H188.133Z" fill="white"/>
<path d="M189.259 57.299C188.963 57.061 188.479 57.1711 188.179 57.5441C187.349 58.5796 185.769 60.5479 184.939 61.583C184.64 61.9564 184.637 62.4524 184.935 62.6907C185.231 62.9286 185.714 62.8182 186.013 62.4452C186.843 61.4109 188.422 59.4425 189.254 58.4056C189.553 58.0329 189.556 57.5369 189.259 57.299Z" fill="white"/>
<path d="M159.107 33.1073C158.81 32.8694 158.325 32.9787 158.026 33.3517C157.194 34.3883 155.617 36.3536 154.787 37.3902C154.488 37.7632 154.485 38.2592 154.781 38.4983C155.078 38.7362 155.561 38.6265 155.86 38.2531C156.691 37.2184 158.269 35.2508 159.102 34.2142C159.4 33.8416 159.403 33.3453 159.107 33.1073Z" fill="white"/>
<path d="M170.636 32.2931C169.646 31.4987 168.114 31.7623 167.216 32.8825C164.492 36.2767 159.043 43.0708 156.321 46.4647C155.422 47.5845 155.496 49.1359 156.486 49.9304C157.476 50.7248 159.009 50.4604 159.906 49.341C160.974 48.0097 162.464 46.1533 164.042 44.1861C165.076 45.0154 174.328 52.439 177.086 54.6517C175.507 56.6193 174.018 58.4753 172.95 59.8073C172.052 60.9264 172.126 62.479 173.117 63.2734C174.107 64.0675 175.638 63.8023 176.536 62.6829C179.259 59.2887 184.709 52.4953 187.432 49.1019C188.331 47.9817 188.257 46.4302 187.267 45.6362C186.276 44.8417 184.745 45.1043 183.847 46.2256C182.779 47.5569 181.289 49.4125 179.71 51.3801C176.951 49.167 167.7 41.7441 166.666 40.9149C168.245 38.9469 169.734 37.0912 170.803 35.7592C171.702 34.639 171.627 33.0879 170.636 32.2931Z" fill="white"/>
<path d="M189.261 51.688C189.202 51.6411 189.144 51.5945 189.085 51.5472C188.339 50.9487 187.249 51.0664 186.649 51.8136C184.763 54.1648 180.9 58.9803 179.013 61.3315C178.415 62.0779 178.534 63.169 179.28 63.7682C179.339 63.8151 179.398 63.8628 179.456 63.9089C180.203 64.5078 181.292 64.3901 181.892 63.643C183.778 61.2925 187.642 56.4762 189.528 54.1247C190.127 53.3782 190.007 52.2872 189.261 51.688Z" fill="white"/>
<path d="M164.562 31.8728C164.503 31.8259 164.444 31.7783 164.386 31.7313C163.639 31.1325 162.55 31.2509 161.951 31.9977C160.064 34.3489 156.201 39.1648 154.314 41.5156C153.715 42.2628 153.835 43.3527 154.581 43.9519C154.639 43.9988 154.699 44.0465 154.757 44.093C155.503 44.6915 156.592 44.5735 157.192 43.8263C159.078 41.4759 162.942 36.6596 164.828 34.3084C165.428 33.562 165.309 32.4721 164.562 31.8728Z" fill="white"/>
<path fill-rule="evenodd" clip-rule="evenodd" d="M76.9115 130.88H230.288C235.367 130.88 239.521 135.035 239.521 140.113V144.648C239.521 149.726 235.366 153.881 230.288 153.881H76.9115C71.8338 153.881 67.6788 149.726 67.6788 144.648V140.113C67.6788 135.035 71.8334 130.88 76.9115 130.88ZM76.9119 133.291H230.289C234.042 133.291 237.111 136.361 237.111 140.113V144.648C237.111 148.4 234.041 151.47 230.289 151.47H76.9119C73.1594 151.47 70.0894 148.401 70.0894 144.648V140.113C70.0894 136.36 73.159 133.291 76.9119 133.291Z" fill="#4051B5"/>
<path fill-rule="evenodd" clip-rule="evenodd" d="M76.9119 133.291H230.289C234.042 133.291 237.111 136.36 237.111 140.113V144.648C237.111 148.401 234.042 151.47 230.289 151.47H76.9119C73.159 151.47 70.0894 148.401 70.0894 144.648V140.113C70.0894 136.36 73.159 133.291 76.9119 133.291Z" fill="#4051B5" fill-opacity="0.4"/>
<path d="M229.993 136.327C230.035 136.002 230.333 135.773 230.658 135.815C230.669 135.817 234.376 136.285 234.376 139.197C234.376 139.526 234.109 139.793 233.78 139.793C233.123 139.793 229.878 137.209 229.993 136.328V136.327Z" fill="white"/>
<path d="M88.9135 138.242L87.2481 144.787H85.6683L84.7823 141.349C84.7638 141.284 84.7392 141.183 84.7104 141.049C84.6798 140.914 84.6491 140.767 84.6154 140.609C84.5833 140.448 84.5542 140.297 84.5284 140.156C84.5039 140.014 84.4853 139.901 84.4762 139.817C84.4687 139.901 84.4501 140.013 84.4259 140.153C84.3998 140.294 84.3722 140.443 84.34 140.601C84.3098 140.76 84.2791 140.906 84.2485 141.044C84.2194 141.181 84.1948 141.287 84.1766 141.357L83.2951 144.787H81.7199L80.05 138.242H81.4161L82.2518 141.814C82.276 141.922 82.3036 142.05 82.3357 142.199C82.3664 142.348 82.3986 142.504 82.4292 142.668C82.4614 142.83 82.4886 142.987 82.5147 143.136C82.5393 143.288 82.559 143.418 82.5699 143.529C82.5851 143.415 82.6051 143.284 82.6293 143.132C82.6524 142.982 82.6785 142.828 82.7072 142.671C82.7349 142.515 82.764 142.37 82.7946 142.235C82.8238 142.101 82.851 141.992 82.8756 141.908L83.8289 138.242H85.1398L86.0935 141.908C86.1147 141.989 86.1393 142.097 86.1669 142.232C86.196 142.368 86.2248 142.515 86.2554 142.674C86.2846 142.831 86.3122 142.987 86.3383 143.136C86.3625 143.288 86.3825 143.418 86.3931 143.529C86.4147 143.379 86.4435 143.198 86.4801 142.985C86.5184 142.771 86.5585 142.559 86.6027 142.347C86.6455 142.135 86.6837 141.957 86.7158 141.814L87.5485 138.242H88.9146H88.9135ZM94.1765 142.306C94.1765 142.718 94.1217 143.085 94.0085 143.404C93.8969 143.722 93.735 143.992 93.5209 144.212C93.3087 144.432 93.0518 144.597 92.751 144.71C92.4518 144.822 92.114 144.879 91.7383 144.879C91.3853 144.879 91.063 144.822 90.7679 144.71C90.4747 144.597 90.2194 144.432 90.0026 144.212C89.7874 143.992 89.619 143.722 89.5013 143.404C89.3837 143.085 89.3254 142.718 89.3254 142.306C89.3254 141.755 89.4234 141.291 89.6205 140.909C89.8176 140.529 90.0972 140.241 90.4623 140.042C90.8258 139.844 91.2597 139.745 91.764 139.745C92.2331 139.745 92.6485 139.845 93.0106 140.042C93.3726 140.241 93.6582 140.529 93.8663 140.909C94.0721 141.291 94.1761 141.756 94.1761 142.306H94.1765ZM90.718 142.306C90.718 142.628 90.7532 142.899 90.8251 143.118C90.8969 143.338 91.0085 143.503 91.161 143.615C91.3123 143.727 91.5109 143.782 91.7553 143.782C91.9982 143.782 92.1942 143.727 92.3455 143.615C92.4953 143.503 92.605 143.338 92.6754 143.118C92.7457 142.899 92.7809 142.628 92.7809 142.306C92.7809 141.98 92.7457 141.709 92.6754 141.494C92.605 141.279 92.4949 141.117 92.3425 141.008C92.1908 140.9 91.9925 140.846 91.7462 140.846C91.3857 140.846 91.1247 140.967 90.9612 141.21C90.799 141.454 90.7184 141.818 90.7184 142.305L90.718 142.306ZM98.0985 139.745C98.1673 139.745 98.2468 139.748 98.3379 139.756C98.4284 139.763 98.5033 139.774 98.5596 139.785L98.4556 141.065C98.4113 141.051 98.347 141.039 98.2657 141.031C98.1832 141.024 98.1128 141.021 98.0538 141.021C97.8764 141.021 97.7069 141.042 97.5401 141.086C97.3751 141.131 97.2272 141.203 97.0956 141.3C96.9643 141.4 96.8606 141.528 96.7842 141.688C96.7074 141.849 96.6692 142.045 96.6692 142.278V144.787H95.305V139.836H96.339L96.5391 140.68H96.6064C96.7055 140.51 96.8277 140.355 96.976 140.213C97.1243 140.07 97.2923 139.958 97.4818 139.872C97.6714 139.788 97.876 139.745 98.0973 139.745H98.0985ZM100.833 137.82V140.958C100.833 141.148 100.825 141.337 100.812 141.526C100.796 141.716 100.78 141.905 100.761 142.095H100.78C100.873 141.965 100.968 141.837 101.064 141.71C101.161 141.583 101.265 141.461 101.375 141.342L102.776 139.837H104.316L102.328 141.984L104.437 144.787H102.861L101.42 142.781L100.833 143.247V144.787H99.4683V137.82H100.833L100.833 137.82ZM107.919 140.862H106.738V144.786H105.372V140.862H104.62V140.203L105.372 139.829V139.453C105.372 139.018 105.445 138.677 105.589 138.436C105.734 138.193 105.938 138.022 106.203 137.923C106.467 137.823 106.779 137.774 107.141 137.774C107.405 137.774 107.648 137.795 107.865 137.838C108.083 137.883 108.261 137.932 108.398 137.985L108.048 138.987C107.944 138.954 107.832 138.924 107.709 138.897C107.587 138.871 107.447 138.857 107.288 138.857C107.096 138.857 106.958 138.918 106.869 139.039C106.782 139.162 106.738 139.316 106.738 139.505V139.836H107.918V140.862H107.919ZM110.065 144.786H108.701V137.82H110.065V144.786ZM116.042 142.305C116.042 142.718 115.987 143.084 115.874 143.404C115.762 143.721 115.6 143.992 115.386 144.212C115.174 144.431 114.917 144.597 114.616 144.71C114.317 144.821 113.979 144.878 113.604 144.878C113.251 144.878 112.928 144.821 112.633 144.71C112.34 144.597 112.085 144.432 111.868 144.212C111.653 143.992 111.484 143.721 111.367 143.404C111.249 143.084 111.191 142.718 111.191 142.305C111.191 141.755 111.289 141.291 111.486 140.909C111.683 140.528 111.962 140.24 112.328 140.041C112.691 139.844 113.125 139.745 113.629 139.745C114.098 139.745 114.514 139.844 114.876 140.041C115.238 140.24 115.524 140.528 115.732 140.909C115.937 141.291 116.041 141.755 116.041 142.305H116.042ZM112.583 142.305C112.583 142.627 112.618 142.898 112.69 143.118C112.762 143.338 112.874 143.503 113.026 143.615C113.178 143.726 113.376 143.781 113.621 143.781C113.863 143.781 114.059 143.726 114.211 143.615C114.361 143.503 114.47 143.338 114.541 143.118C114.611 142.898 114.646 142.627 114.646 142.305C114.646 141.98 114.611 141.709 114.541 141.494C114.47 141.279 114.36 141.117 114.208 141.008C114.056 140.9 113.858 140.846 113.612 140.846C113.251 140.846 112.99 140.967 112.827 141.209C112.664 141.454 112.584 141.817 112.584 142.305L112.583 142.305ZM121.284 144.786L120.899 143.055C120.879 142.951 120.844 142.799 120.796 142.597C120.749 142.395 120.697 142.178 120.642 141.946C120.587 141.714 120.535 141.5 120.489 141.302C120.443 141.104 120.409 140.959 120.388 140.868H120.348C120.327 140.959 120.295 141.104 120.249 141.302C120.205 141.5 120.154 141.716 120.099 141.948C120.044 142.181 119.992 142.4 119.944 142.606C119.897 142.81 119.86 142.967 119.837 143.072L119.434 144.786H117.966L116.544 139.836H117.904L118.482 142.027C118.521 142.181 118.558 142.363 118.593 142.574C118.63 142.786 118.662 142.989 118.69 143.185C118.718 143.382 118.74 143.538 118.755 143.652H118.79C118.797 143.567 118.81 143.454 118.829 143.312C118.848 143.169 118.872 143.023 118.896 142.872C118.922 142.719 118.945 142.581 118.968 142.459C118.991 142.337 119.007 142.253 119.02 142.209L119.637 139.836H121.14L121.727 142.209C121.748 142.294 121.776 142.43 121.81 142.617C121.845 142.803 121.875 142.994 121.901 143.19C121.929 143.387 121.944 143.541 121.947 143.653H121.982C121.995 143.552 122.016 143.404 122.045 143.205C122.075 143.008 122.111 142.8 122.15 142.583C122.19 142.367 122.231 142.182 122.274 142.027L122.873 139.836H124.211L122.771 144.787H121.284L121.284 144.786ZM128.509 143.32C128.509 143.656 128.429 143.94 128.269 144.172C128.11 144.403 127.872 144.579 127.556 144.7C127.239 144.819 126.845 144.879 126.373 144.879C126.025 144.879 125.725 144.856 125.476 144.811C125.228 144.767 124.975 144.692 124.722 144.588V143.459C124.993 143.582 125.285 143.682 125.597 143.762C125.909 143.841 126.182 143.881 126.419 143.881C126.685 143.881 126.874 143.843 126.989 143.766C127.105 143.69 127.162 143.589 127.162 143.466C127.162 143.383 127.139 143.308 127.093 143.242C127.046 143.175 126.946 143.1 126.795 143.017C126.642 142.933 126.404 142.823 126.079 142.687C125.766 142.557 125.509 142.426 125.307 142.292C125.106 142.159 124.956 142.002 124.859 141.82C124.762 141.638 124.714 141.408 124.714 141.127C124.714 140.67 124.893 140.325 125.254 140.094C125.613 139.862 126.094 139.746 126.696 139.746C127.008 139.746 127.302 139.778 127.585 139.841C127.867 139.903 128.156 140.003 128.456 140.14L128.043 141.124C127.796 141.017 127.562 140.928 127.344 140.862C127.124 140.793 126.901 140.758 126.675 140.758C126.475 140.758 126.324 140.783 126.223 140.837C126.12 140.889 126.07 140.97 126.07 141.078C126.07 141.156 126.096 141.227 126.149 141.287C126.201 141.35 126.302 141.417 126.453 141.492C126.603 141.567 126.824 141.662 127.118 141.779C127.4 141.894 127.646 142.014 127.855 142.14C128.065 142.265 128.225 142.421 128.34 142.604C128.453 142.789 128.509 143.027 128.509 143.321L128.509 143.32ZM137.831 139.745C138.4 139.745 138.827 139.889 139.119 140.176C139.41 140.464 139.555 140.926 139.555 141.56V144.787H138.186V141.905C138.186 141.553 138.125 141.287 138.002 141.106C137.88 140.927 137.691 140.838 137.434 140.838C137.072 140.838 136.815 140.964 136.664 141.22C136.511 141.473 136.435 141.838 136.435 142.312V144.787H135.07V141.905C135.07 141.67 135.043 141.473 134.99 141.314C134.936 141.155 134.853 141.036 134.744 140.956C134.634 140.877 134.492 140.837 134.319 140.837C134.065 140.837 133.865 140.9 133.721 141.025C133.576 141.149 133.473 141.334 133.411 141.577C133.35 141.82 133.319 142.116 133.319 142.466V144.787H131.955V139.836H132.997L133.182 140.478H133.257C133.359 140.305 133.486 140.165 133.64 140.058C133.793 139.951 133.962 139.871 134.147 139.821C134.332 139.771 134.52 139.745 134.711 139.745C135.08 139.745 135.39 139.804 135.645 139.924C135.9 140.043 136.097 140.228 136.235 140.478H136.356C136.504 140.222 136.715 140.035 136.988 139.919C137.261 139.803 137.543 139.745 137.831 139.745ZM143.007 139.745C143.678 139.745 144.193 139.889 144.55 140.177C144.909 140.466 145.088 140.906 145.088 141.494V144.787H144.134L143.87 144.108H143.835C143.691 144.287 143.545 144.434 143.395 144.547C143.247 144.66 143.074 144.744 142.882 144.797C142.688 144.851 142.451 144.879 142.174 144.879C141.878 144.879 141.614 144.822 141.38 144.71C141.145 144.599 140.962 144.428 140.827 144.195C140.692 143.965 140.626 143.671 140.626 143.315C140.626 142.79 140.812 142.404 141.185 142.156C141.557 141.907 142.118 141.769 142.864 141.742L143.732 141.716V141.5C143.732 141.244 143.663 141.056 143.526 140.937C143.39 140.816 143.199 140.756 142.953 140.756C142.711 140.756 142.474 140.791 142.242 140.859C142.009 140.927 141.776 141.015 141.544 141.118L141.092 140.197C141.358 140.056 141.654 139.946 141.984 139.865C142.314 139.784 142.655 139.745 143.007 139.745L143.007 139.745ZM143.731 142.512L143.204 142.53C142.761 142.541 142.456 142.619 142.283 142.759C142.112 142.901 142.026 143.087 142.026 143.32C142.026 143.523 142.087 143.666 142.21 143.752C142.332 143.838 142.492 143.881 142.69 143.881C142.981 143.881 143.229 143.797 143.429 143.629C143.631 143.46 143.731 143.222 143.731 142.912V142.512V142.512ZM148.078 144.878C147.52 144.878 147.065 144.661 146.715 144.229C146.363 143.797 146.189 143.161 146.189 142.322C146.189 141.476 146.366 140.834 146.721 140.399C147.077 139.964 147.54 139.745 148.113 139.745C148.353 139.745 148.562 139.777 148.744 139.843C148.927 139.909 149.084 139.998 149.216 140.107C149.349 140.219 149.462 140.342 149.555 140.478H149.6C149.581 140.382 149.559 140.237 149.534 140.046C149.509 139.857 149.497 139.659 149.497 139.458V137.82H150.866V144.787H149.82L149.555 144.141H149.497C149.41 144.277 149.301 144.402 149.172 144.513C149.042 144.625 148.888 144.715 148.709 144.781C148.53 144.846 148.319 144.879 148.078 144.879L148.078 144.878ZM148.556 143.791C148.93 143.791 149.193 143.682 149.346 143.463C149.5 143.245 149.581 142.916 149.59 142.476V142.331C149.59 141.853 149.515 141.488 149.367 141.234C149.217 140.981 148.939 140.856 148.535 140.856C148.232 140.856 147.997 140.982 147.828 141.237C147.656 141.492 147.573 141.859 147.573 142.34C147.573 142.82 147.658 143.182 147.829 143.425C148.002 143.668 148.243 143.79 148.556 143.79V143.791ZM154.357 139.745C154.819 139.745 155.218 139.832 155.553 140.007C155.886 140.183 156.144 140.438 156.326 140.773C156.509 141.106 156.599 141.514 156.599 141.995V142.65H153.373C153.388 143.028 153.503 143.324 153.719 143.54C153.935 143.755 154.236 143.862 154.621 143.862C154.94 143.862 155.233 143.828 155.498 143.763C155.764 143.698 156.037 143.599 156.318 143.468V144.525C156.069 144.647 155.811 144.736 155.541 144.792C155.272 144.849 154.943 144.878 154.558 144.878C154.057 144.878 153.614 144.786 153.228 144.603C152.841 144.419 152.537 144.141 152.318 143.766C152.098 143.391 151.99 142.919 151.99 142.35C151.99 141.77 152.088 141.288 152.286 140.903C152.485 140.518 152.761 140.228 153.117 140.035C153.472 139.841 153.886 139.745 154.356 139.745H154.357ZM154.366 140.717C154.1 140.717 153.88 140.799 153.706 140.964C153.532 141.129 153.431 141.389 153.403 141.742H155.319C155.316 141.545 155.28 141.369 155.209 141.216C155.14 141.061 155.035 140.941 154.896 140.851C154.759 140.761 154.582 140.716 154.366 140.716V140.717ZM162.154 139.745C162.617 139.745 163.016 139.832 163.35 140.007C163.683 140.183 163.942 140.438 164.123 140.773C164.307 141.106 164.397 141.514 164.397 141.995V142.65H161.17C161.185 143.028 161.3 143.324 161.517 143.54C161.732 143.755 162.033 143.862 162.418 143.862C162.738 143.862 163.031 143.828 163.295 143.763C163.561 143.698 163.835 143.599 164.116 143.468V144.525C163.867 144.647 163.608 144.736 163.338 144.792C163.069 144.849 162.741 144.878 162.355 144.878C161.854 144.878 161.411 144.786 161.025 144.603C160.638 144.419 160.334 144.141 160.115 143.766C159.896 143.391 159.787 142.919 159.787 142.35C159.787 141.77 159.885 141.288 160.084 140.903C160.282 140.518 160.559 140.228 160.915 140.035C161.269 139.841 161.683 139.745 162.154 139.745H162.154ZM162.163 140.717C161.898 140.717 161.678 140.799 161.503 140.964C161.329 141.129 161.228 141.389 161.201 141.742H163.117C163.114 141.545 163.077 141.369 163.007 141.216C162.938 141.061 162.832 140.941 162.694 140.851C162.556 140.761 162.379 140.716 162.163 140.716V140.717ZM167.557 139.745C168.228 139.745 168.743 139.889 169.1 140.177C169.459 140.466 169.638 140.906 169.638 141.494V144.787H168.685L168.421 144.108H168.385C168.242 144.287 168.095 144.434 167.945 144.547C167.797 144.66 167.625 144.744 167.432 144.797C167.238 144.851 167.001 144.879 166.725 144.879C166.428 144.879 166.164 144.822 165.93 144.71C165.695 144.599 165.512 144.428 165.377 144.195C165.242 143.965 165.176 143.671 165.176 143.315C165.176 142.79 165.362 142.404 165.735 142.156C166.108 141.907 166.669 141.769 167.414 141.742L168.282 141.716V141.5C168.282 141.244 168.213 141.056 168.076 140.937C167.94 140.816 167.749 140.756 167.503 140.756C167.261 140.756 167.025 140.791 166.792 140.859C166.559 140.927 166.326 141.015 166.094 141.118L165.642 140.197C165.908 140.056 166.204 139.946 166.534 139.865C166.864 139.784 167.205 139.745 167.558 139.745L167.557 139.745ZM168.281 142.512L167.754 142.53C167.311 142.541 167.006 142.619 166.833 142.759C166.662 142.901 166.576 143.087 166.576 143.32C166.576 143.523 166.638 143.666 166.76 143.752C166.882 143.838 167.042 143.881 167.24 143.881C167.532 143.881 167.779 143.797 167.979 143.629C168.181 143.46 168.281 143.222 168.281 142.912V142.512V142.512ZM174.534 143.32C174.534 143.656 174.455 143.94 174.295 144.172C174.136 144.403 173.898 144.579 173.581 144.7C173.265 144.819 172.871 144.879 172.399 144.879C172.051 144.879 171.751 144.856 171.502 144.811C171.253 144.767 171.001 144.692 170.748 144.588V143.459C171.019 143.582 171.311 143.682 171.623 143.762C171.934 143.841 172.208 143.881 172.445 143.881C172.711 143.881 172.9 143.843 173.015 143.766C173.131 143.69 173.188 143.589 173.188 143.466C173.188 143.383 173.165 143.308 173.119 143.242C173.072 143.175 172.972 143.1 172.821 143.017C172.668 142.933 172.43 142.823 172.105 142.687C171.791 142.557 171.534 142.426 171.333 142.292C171.132 142.159 170.982 142.002 170.885 141.82C170.788 141.638 170.74 141.408 170.74 141.127C170.74 140.67 170.919 140.325 171.279 140.094C171.638 139.862 172.12 139.746 172.722 139.746C173.033 139.746 173.328 139.778 173.611 139.841C173.893 139.903 174.182 140.003 174.482 140.14L174.069 141.124C173.822 141.017 173.588 140.928 173.37 140.862C173.15 140.793 172.927 140.758 172.7 140.758C172.501 140.758 172.349 140.783 172.248 140.837C172.146 140.889 172.095 140.97 172.095 141.078C172.095 141.156 172.122 141.227 172.175 141.287C172.227 141.35 172.328 141.417 172.479 141.492C172.629 141.567 172.85 141.662 173.143 141.779C173.426 141.894 173.672 142.014 173.881 142.14C174.09 142.265 174.251 142.421 174.365 142.604C174.479 142.789 174.535 143.027 174.535 143.321L174.534 143.32ZM174.883 139.836H176.378L177.323 142.629C177.352 142.72 177.378 142.81 177.397 142.901C177.419 142.993 177.438 143.088 177.453 143.185C177.466 143.283 177.479 143.385 177.488 143.491H177.516C177.532 143.332 177.558 143.182 177.589 143.043C177.621 142.904 177.659 142.767 177.708 142.629L178.634 139.836H180.098L177.98 145.437C177.851 145.779 177.685 146.066 177.479 146.296C177.273 146.525 177.037 146.698 176.77 146.814C176.503 146.928 176.209 146.987 175.89 146.987C175.736 146.987 175.601 146.979 175.487 146.962C175.374 146.945 175.277 146.928 175.196 146.91V145.827C175.259 145.842 175.339 145.856 175.433 145.868C175.529 145.879 175.629 145.885 175.734 145.885C175.925 145.885 176.088 145.845 176.226 145.767C176.364 145.688 176.478 145.581 176.571 145.448C176.663 145.315 176.736 145.169 176.79 145.01L176.871 144.767L174.883 139.836ZM182.085 143.723L182.152 143.825C182.098 144.041 182.028 144.272 181.943 144.519C181.859 144.766 181.765 145.014 181.666 145.261C181.566 145.509 181.467 145.746 181.364 145.969H180.38C180.439 145.728 180.498 145.474 180.555 145.208C180.611 144.942 180.665 144.682 180.713 144.426C180.762 144.169 180.802 143.935 180.831 143.723H182.086H182.085ZM185.093 139.836H186.588L187.532 142.629C187.562 142.72 187.588 142.81 187.607 142.901C187.629 142.993 187.647 143.088 187.663 143.185C187.676 143.283 187.689 143.385 187.698 143.491H187.725C187.742 143.332 187.768 143.182 187.799 143.043C187.831 142.904 187.869 142.767 187.918 142.629L188.844 139.836H190.307L188.19 145.437C188.061 145.779 187.895 146.066 187.689 146.296C187.483 146.525 187.247 146.698 186.98 146.814C186.713 146.928 186.419 146.987 186.1 146.987C185.945 146.987 185.811 146.979 185.697 146.962C185.583 146.945 185.487 146.928 185.406 146.91V145.827C185.469 145.842 185.549 145.856 185.643 145.868C185.739 145.879 185.839 145.885 185.944 145.885C186.135 145.885 186.298 145.845 186.436 145.767C186.573 145.688 186.688 145.581 186.781 145.448C186.873 145.315 186.946 145.169 186.999 145.01L187.08 144.767L185.093 139.836ZM195.57 142.306C195.57 142.718 195.515 143.085 195.402 143.404C195.29 143.722 195.129 143.992 194.914 144.212C194.702 144.432 194.445 144.597 194.145 144.71C193.845 144.822 193.508 144.879 193.132 144.879C192.779 144.879 192.457 144.822 192.161 144.71C191.868 144.597 191.613 144.432 191.396 144.212C191.181 143.992 191.013 143.722 190.895 143.404C190.777 143.085 190.719 142.718 190.719 142.306C190.719 141.755 190.817 141.291 191.014 140.909C191.211 140.529 191.491 140.241 191.856 140.042C192.219 139.844 192.653 139.745 193.158 139.745C193.627 139.745 194.042 139.845 194.404 140.042C194.766 140.241 195.052 140.529 195.26 140.909C195.466 141.291 195.57 141.756 195.57 142.306H195.57ZM192.112 142.306C192.112 142.628 192.147 142.899 192.219 143.118C192.29 143.338 192.402 143.503 192.555 143.615C192.706 143.727 192.904 143.782 193.149 143.782C193.392 143.782 193.588 143.727 193.739 143.615C193.889 143.503 193.999 143.338 194.069 143.118C194.139 142.899 194.174 142.628 194.174 142.306C194.174 141.98 194.139 141.709 194.069 141.494C193.999 141.279 193.888 141.117 193.736 141.008C193.584 140.9 193.386 140.846 193.14 140.846C192.779 140.846 192.518 140.967 192.355 141.21C192.193 141.454 192.112 141.818 192.112 142.305L192.112 142.306ZM201.292 139.836V144.787H200.244L200.061 144.148H199.989C199.882 144.319 199.747 144.458 199.585 144.565C199.425 144.672 199.248 144.752 199.054 144.802C198.859 144.852 198.658 144.879 198.449 144.879C198.091 144.879 197.78 144.816 197.513 144.69C197.248 144.565 197.041 144.369 196.893 144.103C196.747 143.838 196.672 143.491 196.672 143.067V139.836H198.038V142.721C198.038 143.076 198.102 143.341 198.231 143.522C198.359 143.701 198.562 143.791 198.843 143.791C199.121 143.791 199.338 143.728 199.497 143.602C199.654 143.477 199.766 143.294 199.83 143.051C199.894 142.808 199.926 142.51 199.926 142.16V139.836H201.292L201.292 139.836ZM205.516 139.745C205.585 139.745 205.664 139.748 205.755 139.756C205.846 139.763 205.921 139.774 205.977 139.785L205.873 141.065C205.829 141.051 205.764 141.039 205.683 141.031C205.601 141.024 205.53 141.021 205.471 141.021C205.294 141.021 205.124 141.042 204.957 141.086C204.793 141.131 204.645 141.203 204.513 141.3C204.382 141.4 204.278 141.528 204.202 141.688C204.125 141.849 204.087 142.045 204.087 142.278V144.787H202.722V139.836H203.756L203.956 140.68H204.024C204.123 140.51 204.245 140.355 204.393 140.213C204.542 140.07 204.71 139.958 204.899 139.872C205.089 139.788 205.293 139.745 205.515 139.745H205.516ZM213.381 144.786L212.996 143.055C212.976 142.951 212.941 142.799 212.893 142.597C212.846 142.395 212.794 142.178 212.739 141.946C212.684 141.714 212.632 141.5 212.586 141.302C212.54 141.104 212.506 140.959 212.485 140.868H212.445C212.424 140.959 212.392 141.104 212.346 141.302C212.302 141.5 212.251 141.716 212.196 141.948C212.141 142.181 212.089 142.4 212.041 142.606C211.994 142.81 211.957 142.967 211.934 143.072L211.531 144.786H210.063L208.641 139.836H210.001L210.578 142.027C210.618 142.181 210.655 142.363 210.69 142.574C210.727 142.786 210.759 142.989 210.787 143.185C210.815 143.382 210.837 143.538 210.852 143.652H210.887C210.894 143.567 210.907 143.454 210.926 143.312C210.945 143.169 210.969 143.023 210.993 142.872C211.019 142.719 211.042 142.581 211.065 142.459C211.088 142.337 211.104 142.253 211.117 142.209L211.734 139.836H213.237L213.824 142.209C213.845 142.294 213.873 142.43 213.906 142.617C213.942 142.803 213.972 142.994 213.998 143.19C214.026 143.387 214.041 143.541 214.044 143.653H214.079C214.091 143.552 214.113 143.404 214.142 143.205C214.172 143.008 214.208 142.8 214.247 142.583C214.287 142.367 214.328 142.182 214.371 142.027L214.97 139.836H216.308L214.868 144.787H213.381L213.381 144.786ZM219.165 139.745C219.835 139.745 220.35 139.889 220.708 140.177C221.067 140.466 221.246 140.906 221.246 141.494V144.787H220.292L220.028 144.108H219.993C219.849 144.287 219.703 144.434 219.553 144.547C219.404 144.66 219.232 144.744 219.039 144.797C218.845 144.851 218.609 144.879 218.332 144.879C218.036 144.879 217.771 144.822 217.538 144.71C217.303 144.599 217.119 144.428 216.984 144.195C216.85 143.965 216.783 143.671 216.783 143.315C216.783 142.79 216.97 142.404 217.342 142.156C217.715 141.907 218.276 141.769 219.021 141.742L219.889 141.716V141.5C219.889 141.244 219.82 141.056 219.683 140.937C219.547 140.816 219.356 140.756 219.11 140.756C218.869 140.756 218.632 140.791 218.4 140.859C218.166 140.927 217.934 141.015 217.702 141.118L217.249 140.197C217.515 140.056 217.812 139.946 218.142 139.865C218.472 139.784 218.812 139.745 219.165 139.745L219.165 139.745ZM219.889 142.512L219.362 142.53C218.919 142.541 218.613 142.619 218.44 142.759C218.269 142.901 218.184 143.087 218.184 143.32C218.184 143.523 218.245 143.666 218.367 143.752C218.49 143.838 218.65 143.881 218.847 143.881C219.139 143.881 219.386 143.797 219.586 143.629C219.788 143.46 219.889 143.222 219.889 142.912V142.512V142.512ZM221.935 139.836H223.43L224.374 142.629C224.403 142.72 224.43 142.81 224.449 142.901C224.471 142.993 224.489 143.088 224.504 143.185C224.518 143.283 224.531 143.385 224.54 143.491H224.567C224.584 143.332 224.61 143.182 224.641 143.043C224.673 142.904 224.711 142.767 224.76 142.629L225.686 139.836H227.149L225.031 145.437C224.903 145.779 224.737 146.066 224.531 146.296C224.324 146.525 224.089 146.698 223.822 146.814C223.555 146.928 223.261 146.987 222.942 146.987C222.787 146.987 222.653 146.979 222.538 146.962C222.425 146.945 222.329 146.928 222.248 146.91V145.827C222.311 145.842 222.39 145.856 222.485 145.868C222.581 145.879 222.681 145.885 222.785 145.885C222.977 145.885 223.14 145.845 223.278 145.767C223.415 145.688 223.53 145.581 223.623 145.448C223.715 145.315 223.788 145.169 223.841 145.01L223.922 144.767L221.935 139.836Z" fill="white"/>
</svg>
