<svg width="128" height="128" viewBox="0 0 128 128" fill="none" xmlns="http://www.w3.org/2000/svg">
<path d="M81.6809 43.2511L72.0245 67.3912C73.1378 69.2211 73.7798 71.3683 73.7798 73.6621C73.7798 80.3347 68.3514 85.7639 61.678 85.7639C61.678 78.38 61.678 68.7009 61.678 61.561C63.8298 61.561 65.85 62.1281 67.6024 63.1166L77.8259 37.5571L88.5741 43.2511H81.6805H81.6809Z" fill="white"/>
<path d="M40.3545 50.9628L36.1072 43.8846H19.5424V39.9282H38.3479L43.7472 48.9271L40.3545 50.9628Z" fill="white"/>
<path d="M74.4037 104.074L89.4578 66.0801L98.7185 78.5666L94.3823 82.2775L90.9817 77.6924L78.2723 109.768H67.0837V104.074H74.4037Z" fill="white"/>
<path d="M88.1405 65.7544C76.1651 65.7544 66.7849 72.0862 66.7849 80.1696C66.7849 88.2526 76.1655 94.5848 88.1405 94.5848C100.116 94.5848 109.496 88.253 109.496 80.1696C109.496 72.0862 100.116 65.7544 88.1405 65.7544Z" fill="white"/>
<path d="M72.0248 79.9337C73.1378 78.1038 73.7798 75.9565 73.7798 73.6628C73.7798 66.9902 68.3514 61.561 61.6784 61.561C55.0057 61.561 49.577 66.9894 49.577 73.6628C49.577 75.5722 50.023 77.379 50.814 78.9868L48.616 84.4822L39.3614 79.8551L29.674 104.074H22.3465V109.768H33.5282L42.3497 87.7149L51.6043 92.342L55.033 83.7694C56.9415 85.0285 59.225 85.7643 61.6776 85.7643C63.8295 85.7643 65.8496 85.1972 67.602 84.2087C72.0245 79.9341 67.602 84.2087 72.0244 79.9341L72.0248 79.9337Z" fill="white"/>
<path d="M45.3554 45.9177L39.2438 35.7317H15.406V30.0381H42.4677L50.2379 42.9884L45.3554 45.9177Z" fill="white"/>
<path d="M60.716 45.529C58.2358 42.5422 54.3108 41.0278 49.05 41.0278C44.5428 41.0278 39.0955 43.1899 32.8586 47.4531C28.3912 50.5068 25.16 53.5303 25.0249 53.6574L22.8179 55.7317L25.0249 57.8063C25.1604 57.9334 28.3915 60.9569 32.8586 64.0106C39.0955 68.2738 44.5432 70.4359 49.05 70.4359C54.3108 70.4359 58.2354 68.9215 60.716 65.9344C62.7604 63.4727 63.7538 60.1356 63.7538 55.7317C63.7538 51.3277 62.76 47.9907 60.716 45.529ZM43.7476 57.7564H49.4412V52.0628H43.7476V57.7564Z" fill="white"/>
<path d="M49.4408 52.0625H43.7472V57.7561H49.4408V52.0625Z" fill="white"/>
<path d="M105.258 104.074L90.2035 66.0801L80.9432 78.5666L85.2794 82.2775L88.68 77.6924L101.389 109.768H112.578V104.074H105.258Z" fill="white"/>
<path d="M106.797 53.6736C106.391 53.3486 105.73 53.4988 105.321 54.0091C104.185 55.424 102.028 58.1138 100.893 59.5275C100.484 60.0379 100.481 60.7151 100.887 61.0412C101.293 61.3665 101.952 61.2156 102.361 60.7056C103.495 59.2922 105.653 56.6024 106.789 55.186C107.198 54.6765 107.202 53.9989 106.797 53.6736Z" fill="white"/>
<path d="M65.5947 20.6173C65.1891 20.292 64.5271 20.4418 64.1177 20.9517C62.9813 22.3681 60.8264 25.0542 59.6923 26.4694C59.2829 26.9798 59.2799 27.6569 59.6843 27.9842C60.0899 28.3095 60.7496 28.159 61.1586 27.649C62.2932 26.2349 64.4507 23.5458 65.5879 22.1302C65.9964 21.6206 66.0002 20.9427 65.5947 20.6173Z" fill="white"/>
<path d="M81.3487 19.5049C79.9959 18.4196 77.9027 18.7801 76.6751 20.31C72.9536 24.9481 65.5069 34.2319 61.7877 38.8688C60.5601 40.3991 60.6604 42.5192 62.0132 43.6045C63.3664 44.6899 65.46 44.3286 66.6869 42.7995C68.146 40.9809 70.1813 38.4436 72.3381 35.7557C73.7507 36.8891 86.3939 47.0328 90.1623 50.0563C88.0047 52.7449 85.9706 55.2811 84.5103 57.1008C83.2834 58.6299 83.3852 60.7515 84.738 61.8369C86.0912 62.9223 88.1829 62.5598 89.4098 61.0307C93.1312 56.3926 100.579 47.1096 104.299 42.473C105.527 40.9423 105.426 38.8227 104.074 37.7373C102.721 36.6519 100.629 37.0106 99.3999 38.5423C97.9407 40.3613 95.9058 42.8975 93.7486 45.5861C89.9784 42.5615 77.3371 32.419 75.9245 31.2856C78.082 28.5969 80.1166 26.0607 81.5765 24.2414C82.8048 22.7104 82.7023 20.5911 81.3487 19.5049Z" fill="white"/>
<path d="M106.798 46.0069C106.718 45.9426 106.639 45.879 106.559 45.8143C105.539 44.9964 104.05 45.158 103.231 46.1787C100.653 49.3913 95.3742 55.9713 92.7964 59.1839C91.9781 60.2038 92.1416 61.6951 93.1615 62.5134C93.2417 62.5777 93.3226 62.6428 93.4013 62.7063C94.4213 63.5246 95.9107 63.3631 96.7297 62.3424C99.3068 59.1309 104.586 52.5498 107.164 49.3364C107.983 48.3169 107.818 46.8256 106.798 46.0069Z" fill="white"/>
<path d="M73.0497 18.9302C72.9699 18.8662 72.8889 18.8012 72.8095 18.7369C71.7895 17.9186 70.3005 18.0805 69.4818 19.1012C66.904 22.3138 61.6247 28.8941 59.0472 32.1064C58.2282 33.1271 58.3916 34.6172 59.4116 35.4355C59.4918 35.4998 59.5727 35.5649 59.6514 35.6285C60.6713 36.4468 62.16 36.2848 62.979 35.2642C65.5561 32.0523 70.8358 25.4712 73.4136 22.2586C74.2334 21.239 74.0696 19.7488 73.0497 18.9302Z" fill="white"/>
</svg>
